<?xml version="1.0" encoding="utf-8"?>
<!-- Generator: Adobe Illustrator 17.1.0, SVG Export Plug-In . SVG Version: 6.00 Build 0)  -->
<!DOCTYPE svg PUBLIC "-//W3C//DTD SVG 1.1//EN" "http://www.w3.org/Graphics/SVG/1.1/DTD/svg11.dtd">
<svg version="1.1" id="Layer_1" xmlns="http://www.w3.org/2000/svg" xmlns:xlink="http://www.w3.org/1999/xlink" x="0px" y="0px"
	 viewBox="0 0 1181 951.6" enable-background="new 0 0 1181 951.6" xml:space="preserve">
<g>
	<path fill="#FFFFFF" d="M54.7,919.4H44.4v-92h10.3V919.4z"/>
	<path fill="#FFFFFF" d="M74,823.5l71.8,75.2v-71.3H156v96.2l-71.8-75v70.9H74V823.5z"/>
	<path fill="#FFFFFF" d="M185.4,836.9v27.3H216v9.5h-30.6v45.6h-10.3v-92H217v9.5H185.4z"/>
	<path fill="#FFFFFF" d="M276.8,825.8c6.6,0,12.8,1.2,18.6,3.7c5.8,2.5,10.9,5.9,15.3,10.3c4.4,4.4,7.8,9.4,10.3,15.2
		c2.5,5.8,3.8,12,3.8,18.5c0,6.6-1.3,12.8-3.8,18.5c-2.5,5.8-6,10.8-10.3,15.1c-4.4,4.3-9.4,7.6-15.3,10.1c-5.8,2.5-12,3.7-18.6,3.7
		c-6.6,0-12.8-1.2-18.6-3.7c-5.8-2.5-10.9-5.9-15.3-10.1c-4.4-4.3-7.8-9.3-10.3-15.1c-2.5-5.8-3.8-12-3.8-18.5
		c0-6.6,1.3-12.8,3.8-18.5c2.5-5.8,6-10.8,10.3-15.2c4.4-4.4,9.4-7.8,15.3-10.3C264,827.1,270.2,825.8,276.8,825.8z M276.8,835.3
		c-5.3,0-10.2,1-14.8,3c-4.6,2-8.6,4.7-12,8.2c-3.4,3.5-6,7.5-8,12.1c-2,4.6-2.9,9.6-2.9,14.8c0,5.2,1,10.1,2.9,14.7
		c2,4.6,4.6,8.6,8.1,12.1c3.4,3.5,7.4,6.2,12,8.2c4.6,2,9.5,3.1,14.7,3.1c5.2,0,10.1-1,14.7-3.1c4.6-2,8.6-4.8,12-8.2
		c3.4-3.5,6.1-7.5,8.1-12.1c2-4.6,2.9-9.5,2.9-14.7c0-5.2-1-10.1-2.9-14.8c-2-4.6-4.6-8.7-8-12.1c-3.4-3.5-7.4-6.2-12-8.2
		C287,836.3,282.1,835.3,276.8,835.3z"/>
	<path fill="#FFFFFF" d="M348.9,919.4h-10.3v-92H352c4.4,0,8.6,0.3,12.6,1c4,0.7,7.6,2,10.7,3.8c3.1,1.9,5.6,4.5,7.5,7.8
		c1.9,3.3,2.8,7.5,2.8,12.8c0,7.2-2.1,13-6.2,17.6c-4.1,4.6-9.7,7.2-16.9,7.8l29.3,41.2h-12.6L351.5,879h-2.6V919.4z M348.9,870h3.2
		c2.9,0,5.8-0.2,8.5-0.5c2.8-0.4,5.2-1.1,7.4-2.3c2.2-1.2,4-2.8,5.3-5c1.3-2.2,2-5,2-8.6c0-3.7-0.7-6.7-2-9c-1.3-2.2-3-3.9-5.2-5
		c-2.2-1.1-4.6-1.8-7.4-2.1c-2.8-0.3-5.8-0.5-8.8-0.5h-3.1V870z"/>
	<path fill="#FFFFFF" d="M416.8,822.2l33.4,77.2l33.6-77.2l18.7,97.3h-10.5l-11.8-62.2h-0.2l-29.7,66l-29.5-66h-0.2l-11.8,62.2
		h-10.5L416.8,822.2z"/>
	<path fill="#FFFFFF" d="M527.9,893.3l-11.1,26.1h-11.2l42.5-96.4l41.4,96.4h-11.3l-10.9-26.1H527.9z M547.8,846.9l-15.7,36.9h31.1
		L547.8,846.9z"/>
	<path fill="#FFFFFF" d="M614.1,919.4h-10.2v-82.5h-22.2v-9.5h54.9v9.5h-22.5V919.4z"/>
	<path fill="#FFFFFF" d="M657.5,919.4h-10.3v-92h10.3V919.4z"/>
	<path fill="#FFFFFF" d="M734.5,909.9v9.5h-65.9l50.2-82.5H675v-9.5h60.9l-50.3,82.5H734.5z"/>
	<path fill="#FFFFFF" d="M761.5,893.3l-11.1,26.1h-11.2l42.5-96.4l41.4,96.4h-11.3l-10.9-26.1H761.5z M781.4,846.9l-15.7,36.9h31.1
		L781.4,846.9z"/>
	<path fill="#FFFFFF" d="M903.2,847.6c-3.7-3.8-7.9-6.8-12.8-9c-4.8-2.2-9.9-3.2-15.3-3.2c-5.1,0-9.9,1-14.5,3.1
		c-4.5,2.1-8.4,4.9-11.8,8.4c-3.3,3.5-6,7.5-7.9,12.1c-2,4.6-2.9,9.4-2.9,14.5c0,5,1,9.9,2.9,14.5c2,4.6,4.6,8.6,8,12.1
		c3.4,3.5,7.3,6.3,11.9,8.4c4.6,2.1,9.4,3.1,14.5,3.1c5.2,0,10.2-1.1,15.1-3.4c4.8-2.2,9.1-5.2,12.8-8.8V912
		c-4,2.8-8.3,5.1-13.1,6.6c-4.7,1.6-9.5,2.4-14.4,2.4c-6.5,0-12.7-1.2-18.5-3.7c-5.8-2.5-10.9-5.9-15.3-10.1
		c-4.4-4.3-7.8-9.3-10.4-15c-2.6-5.7-3.8-11.9-3.8-18.4c0-6.6,1.3-12.8,3.8-18.6c2.5-5.8,6-10.9,10.3-15.3
		c4.4-4.4,9.4-7.8,15.3-10.3c5.8-2.5,12-3.8,18.6-3.8c10.3,0,19.4,3,27.5,9V847.6z"/>
	<path fill="#FFFFFF" d="M931,919.4h-10.3v-92H931V919.4z"/>
	<path fill="#FFFFFF" d="M993,825.8c6.6,0,12.8,1.2,18.6,3.7c5.8,2.5,10.9,5.9,15.3,10.3c4.4,4.4,7.8,9.4,10.3,15.2
		c2.5,5.8,3.8,12,3.8,18.5c0,6.6-1.3,12.8-3.8,18.5c-2.5,5.8-6,10.8-10.3,15.1c-4.4,4.3-9.4,7.6-15.3,10.1c-5.8,2.5-12,3.7-18.6,3.7
		c-6.6,0-12.8-1.2-18.6-3.7c-5.8-2.5-10.9-5.9-15.3-10.1c-4.4-4.3-7.8-9.3-10.3-15.1c-2.5-5.8-3.8-12-3.8-18.5
		c0-6.6,1.3-12.8,3.8-18.5c2.5-5.8,6-10.8,10.3-15.2c4.4-4.4,9.4-7.8,15.3-10.3C980.2,827.1,986.4,825.8,993,825.8z M993,835.3
		c-5.3,0-10.2,1-14.8,3c-4.6,2-8.6,4.7-12,8.2c-3.4,3.5-6,7.5-8,12.1c-2,4.6-2.9,9.6-2.9,14.8c0,5.2,1,10.1,2.9,14.7
		c2,4.6,4.6,8.6,8.1,12.1c3.4,3.5,7.4,6.2,12,8.2c4.6,2,9.5,3.1,14.7,3.1c5.2,0,10.1-1,14.7-3.1c4.6-2,8.6-4.8,12-8.2
		c3.4-3.5,6.1-7.5,8.1-12.1c2-4.6,2.9-9.5,2.9-14.7c0-5.2-1-10.1-2.9-14.8c-2-4.6-4.6-8.7-8-12.1c-3.4-3.5-7.4-6.2-12-8.2
		C1003.2,836.3,998.3,835.3,993,835.3z M1010.3,801.7l-18.7,18.8l-6.1-3.4l14.5-20L1010.3,801.7z"/>
	<path fill="#FFFFFF" d="M1055.4,823.5l71.8,75.2v-71.3h10.3v96.2l-71.8-75v70.9h-10.3V823.5z"/>
</g>
<path fill-rule="evenodd" clip-rule="evenodd" fill="#FFFFFF" d="M1181,951.6H0v-10h1181V951.6z"/>
<g>
	<path fill-rule="evenodd" clip-rule="evenodd" fill="#FFFFFF" d="M665.3,359.9c-3,1-6.5,1.6-11,1.2c-4.9-28-22.6-43.3-57.3-41.5
		c0.7-3.3-3.6-7.6,0-9.8C636.6,304.8,659.7,326.9,665.3,359.9z"/>
	<path fill-rule="evenodd" clip-rule="evenodd" fill="#FFFFFF" d="M648.2,362.3c-3,1-6.5,1.6-11,1.2c-1.6-19.4-19.3-28.4-37.8-26.8
		c0.7-4-0.8-5.7-1.2-8.5C624.4,320.7,645.2,338.7,648.2,362.3z"/>
	<path fill-rule="evenodd" clip-rule="evenodd" fill="#FFFFFF" d="M549.4,336.7c-8.8,8.3-21.3,19.7-23.2,36.6
		c-1.5,13.3,3.4,24.2,8.5,35.4c-3.6,0-4.1,3.2-7.3,3.7c-10.5-9.3-14.2-25-12.2-41.5c2.3-18.8,16.8-33.1,26.8-41.5
		C546.9,329.5,546.9,334.3,549.4,336.7z"/>
	<path fill-rule="evenodd" clip-rule="evenodd" fill="#FFFFFF" d="M629.9,363.5c-8.4-6.6-15-15.1-26.8-18.3
		C614.6,340,630.1,349.2,629.9,363.5z"/>
	<path fill-rule="evenodd" clip-rule="evenodd" fill="#FFFFFF" d="M559.2,351.3c-13.4,8-21.2,31.7-9.8,47.6
		c-3.2,0.5-3.7,3.6-7.3,3.7c-18.7-14.3-7-51.2,9.8-58.6C555.7,345.1,555.9,349.8,559.2,351.3z"/>
	<path fill-rule="evenodd" clip-rule="evenodd" fill="#FFFFFF" d="M560.4,359.9c0.5,8.3-7.4,22.3-4.9,32.9
		C544.8,385.1,550.5,364.3,560.4,359.9z"/>
	<path fill-rule="evenodd" clip-rule="evenodd" fill="#FFFFFF" d="M677.3,441.1c3.4-3.9,6.3-8.1,8.4-12.8c6-13.3,7-28.7,5.6-43.5
		c-5.1,6.7-5.9,19.4-8.9,32.4C680.7,424.9,678.2,433.6,677.3,441.1z"/>
	<path fill-rule="evenodd" clip-rule="evenodd" fill="#FFFFFF" d="M626.3,411.1c-3,11.1-17.6,19.9-30.5,13.4
		c7.9-5.1,20.5-5.5,25.6-13.4C623,411.1,624.7,411.1,626.3,411.1z"/>
	<path fill-rule="evenodd" clip-rule="evenodd" fill="#FFFFFF" d="M642.1,417.2c-4,21.4-33.8,33.9-56.1,22c-0.2-4.7,3.1-5.9,3.7-9.8
		c17,8.6,39.1,0,42.7-15.9C637.1,413.3,638.7,416.2,642.1,417.2z"/>
	<path fill-rule="evenodd" clip-rule="evenodd" fill="#FFFFFF" d="M658,424.5c-5.9,28.5-49.4,48-79.3,29.3c0.3-3.8,2.6-5.5,3.7-8.5
		c26.7,12.7,59.6-1.5,65.9-24.4C653,420.6,654.6,423.5,658,424.5z"/>
	<path fill="#FFFFFF" d="M508.2,454.5c11.5,9.2,24.6,14.6,38.5,17.6c-24.4-21.5-48.7-43-73.1-64.4
		C480.8,425.9,492.9,442.4,508.2,454.5z"/>
	<path fill="#FFFFFF" d="M500.4,69c-5.6,3.5-12.1,5.6-19.1,5.8l13.6,52.4c5.4-3.7,12-5.9,19.1-5.9L500.4,69z"/>
	<path fill="#FFFFFF" d="M764.4,214.3l69.5-70.9c-6-3.2-11.1-7.9-14.7-13.6l-68.6,70C756.6,203.1,761.4,208.1,764.4,214.3z"/>
	<path fill="#FFFFFF" d="M876.8,444.1c0,5.2-1.2,10-3.2,14.4l38.1,6.4c-0.3-1.9-0.4-3.8-0.4-5.8c0-5,0.9-9.7,2.7-14.1l-37.5-6.3
		C876.7,440.5,876.8,442.3,876.8,444.1z"/>
	<path fill="#FFFFFF" d="M670.1,552.4l67.7-289.6c-1.3,0.1-2.5,0.2-3.8,0.2c-5.7,0-11.1-1.4-15.9-3.9l-68,290.7
		c1.9-0.3,3.9-0.5,5.9-0.5C661,549.3,665.8,550.4,670.1,552.4z"/>
	<path fill="#FFFFFF" d="M435.2,208.6l54.3-30c-4.6-4.8-7.9-11-9-17.9l-36,19.8L480,74.6c0,0,0,0,0,0c-12.8,0-24.2-6.1-31.2-15.8
		l-0.1,0.1c0,0,0,0-0.1-0.1L250.4,273.7c9.6,5.6,16.6,15.2,18.6,26.6l140.3-77.4l-28.3,84.4c7.1,0,13.7,2.2,19.1,6L435.2,208.6z
		 M279.7,271.6L457.6,78.7l-38.9,116.2L279.7,271.6z"/>
	<path fill="#FFFFFF" d="M851.8,411.5l2-47.7l65,72.5c7-9.6,18.4-15.9,31.2-15.9c1.3,0,2.6,0.1,3.9,0.2L874,141
		c-6.2,4.3-13.8,6.9-22,6.9c-3.2,0-6.3-0.4-9.3-1.1l-6.8,167.1l-68.9-76.9c-1.7,7.1-5.5,13.3-10.8,17.9l78.6,87.7l-2.9,69.7
		c3.5-1.2,7.3-1.9,11.2-1.9C846,410.3,849,410.7,851.8,411.5z M861.7,170.8l72.1,252.4l-78.9-88L861.7,170.8z"/>
	<path fill="#FFFFFF" d="M390.2,663.2c0-0.1,0-0.2,0-0.3l-0.5,0.1L390.2,663.2z"/>
	<path fill="#FFFFFF" d="M677,609.6c-5.2,4.1-11.6,6.8-18.6,7.3l39.1,102.2c5-4.4,11.2-7.5,18-8.9L677,609.6z"/>
	<path fill="#FFFFFF" d="M694.3,722.2L538.6,620.6l86-24.6c-1.6-4-2.6-8.3-2.6-12.9c0-2.5,0.3-5,0.8-7.4l-106.5,30.4l-50.2-32.8
		c-1.3,6.9-4.6,13-9.4,17.8l34.1,22.3l-103.1,29.4c1.8,4.4,2.7,9.2,2.7,14.3c0,2-0.2,3.9-0.4,5.9l123-35.1l154,100.5l-277-65.1
		c-1.1,7-4.1,13.4-8.4,18.6L684.6,753c-0.2-1.6-0.3-3.2-0.3-4.8C684.3,738.1,688.1,729,694.3,722.2z"/>
	<path fill="#FFFFFF" d="M364.1,620.4l10.5-112.7l31.1,39.2c4-5.4,9.6-9.6,16.1-11.8L377.3,479l9.8-104.5c-2,0.4-4,0.6-6.1,0.6
		c-4.9,0-9.6-1-13.8-2.9l-7.9,84.2L260.6,332c-6.9,8.2-17.1,13.5-28.6,13.8l95.1,281.7c6.7-5.7,15.4-9.1,24.9-9.1
		C356.2,618.5,360.3,619.1,364.1,620.4z M258.3,361.2l98.3,123.9l-12.2,131.2L258.3,361.2z"/>
	<path fill="#FFFFFF" d="M351.1,325.3l-81.4-17.1c-0.2,7-2.2,13.6-5.7,19.2l83.4,17.6c-0.1-1.3-0.2-2.5-0.2-3.8
		C347.1,335.4,348.5,330,351.1,325.3z"/>
	<path fill="#FFFFFF" d="M704.6,246c-2.9-5-4.5-10.7-4.5-16.9c0-0.9,0-1.8,0.1-2.8l-291.5,95.4c3.8,5.4,6,12,6.1,19L704.6,246z"/>
	<path fill="#FFFFFF" d="M398.1,370.3l228.2,196.4c3.3-6,8.4-10.8,14.5-13.9L411.6,355.6C408.7,361.7,404,366.9,398.1,370.3z"/>
	<circle fill="#FFFFFF" cx="596" cy="384.1" r="33.9"/>
	<circle fill="#FFFFFF" cx="479.9" cy="34.3" r="34.3"/>
	<circle fill="#FFFFFF" cx="230.9" cy="307.3" r="34.3"/>
	<circle fill="#FFFFFF" cx="351.9" cy="657.3" r="34.3"/>
	<circle fill="#FFFFFF" cx="722.9" cy="749.3" r="34.3"/>
	<circle fill="#FFFFFF" cx="950.9" cy="460.3" r="34.3"/>
	<circle fill="#FFFFFF" cx="852.9" cy="109.3" r="34.3"/>
	<circle fill="#FFFFFF" cx="381.6" cy="342.7" r="25.6"/>
	<circle fill="#FFFFFF" cx="432.6" cy="568.7" r="25.6"/>
	<circle fill="#FFFFFF" cx="656.6" cy="582.7" r="25.6"/>
	<circle fill="#FFFFFF" cx="842.6" cy="443.7" r="25.6"/>
	<circle fill="#FFFFFF" cx="734.6" cy="229.7" r="25.6"/>
	<path fill="#FFFFFF" d="M403,587.7l-31.1,36.4l15.2,13l31.5-36.8C412.3,597.5,406.9,593.2,403,587.7z"/>
	<circle fill="#FFFFFF" cx="514.6" cy="154.7" r="25.6"/>
	<polygon fill="none" points="626.8,129 791.9,106.7 524.7,55.9 	"/>
	<path fill="#FFFFFF" d="M620.2,150.1c0.3,0,0.5-0.1,0.8-0.1l-3.4,0.5L620.2,150.1z"/>
	<path fill="#FFFFFF" d="M304.2,247.6c-3.1,3.4-9.5,2.5-14-1.6l-0.4-0.4c-4.5-4.1-5.6-10.2-2.5-13.6l110.1-119.4
		c3.1-3.4,9.3-2.7,13.8,1.4l0.4,0.4c4.5,4.1,5.8,10.4,2.7,13.8L304.2,247.6z"/>
	<path fill="#FFFFFF" d="M369.5,584c-0.4,4.6-6,7.8-12.1,7.2l-0.6-0.1c-6.1-0.6-10.7-4.7-10.2-9.3l15.3-161.7
		c0.4-4.6,5.7-7.8,11.8-7.2l0.6,0.1c6.1,0.6,11,4.8,10.5,9.3L369.5,584z"/>
	<path fill="#FFFFFF" d="M694.4,462c-0.6,2.7-6.2,3.8-12.2,2.5l-0.6-0.1c-6-1.3-10.3-4.7-9.7-7.4l21.9-97.1
		c0.6-2.7,5.9-3.9,11.9-2.5l0.6,0.1c6,1.3,10.6,4.7,10,7.5L694.4,462z"/>
	<path fill="#FFFFFF" d="M859.9,268.8c0,2.8-5.3,5-11.4,4.9l-0.6,0c-6.1-0.1-11-2.4-11-5.2l1.5-99.6c0-2.8,5-5,11.1-4.9l0.6,0
		c6.1,0.1,11.3,2.4,11.3,5.3L859.9,268.8z"/>
	<path fill="#FFFFFF" d="M773.8,611.6l0.5,0.2c4.2,1.6,7.5,4.3,8.5,6.6l36.5-93.6l102.5-39.1c-4.6-4.9-8-11-9.5-17.8l-83.2,31.8
		l8.6-22.1c-6.9-1.1-13.1-4.3-18-8.9l-15.8,40.6L678,557.4c5.2,4.4,9,10.4,10.8,17.2l105.3-40.2l-29.6,75.9
		C766.9,609.9,770.3,610.3,773.8,611.6z"/>
	<path fill="#FFFFFF" d="M725.9,709.6c0.4,0,0.8,0.1,1.2,0.1c-0.3-0.3-0.6-0.7-0.9-1L725.9,709.6z"/>
	<path fill="#FFFFFF" d="M922.7,486.5L754.5,693.4l-7.9,20c-0.4,1-1.5,1.7-3.1,2c4.2,2.6,7.8,6,10.8,10l186-228.8
		C933.5,494.8,927.5,491.3,922.7,486.5z"/>
	<path fill="#FFFFFF" d="M733.6,713.8l0.5,0.2c3.4,1.4,6.9,1.8,9.3,1.4c-4.8-3-10.4-5-16.4-5.6C728.6,711.2,730.9,712.7,733.6,713.8
		z"/>
	<path fill="#FFFFFF" d="M754.5,693.4l28.6-72.6c0.3-0.7,0.2-1.5-0.2-2.3l-30,76.9L754.5,693.4z"/>
	<path fill="#FFFFFF" d="M746.6,713.4l7.9-20l-1.6,2l30-76.9c-1.1-2.3-4.3-4.9-8.5-6.6l-0.5-0.2c-3.5-1.4-6.9-1.8-9.3-1.3
		l-38.3,98.3c0.3,0.3,0.6,0.7,0.9,1c6,0.6,11.5,2.6,16.4,5.6C745.1,715.1,746.2,714.4,746.6,713.4z"/>
	<polygon fill="none" points="626.8,129 791.9,106.7 524.7,55.9 	"/>
	<path fill="#FFFFFF" d="M546.4,139.9c0.2,0.4,0.4,0.9,0.6,1.3c1.6-1.1,3.5-1.8,5.5-2.1L546.4,139.9z"/>
	<path fill="#FFFFFF" d="M813.3,109.1c0-6.5,1.6-12.6,4.4-17.9L518.3,34.3c0,0.6-0.3,1.2-0.3,1.8c0,0,0,0,0,0c0,0,0,0,0,0
		c0,12-5.2,22.8-13.8,29.9l93.5,66.9l-15.9,2.2l21.5-2.9c6.5-0.9,12.4,3.1,13.2,9l0,0.3c0.5,3.8-1.3,7.5-4.5,9.8l5.5-0.7l3.4-0.5
		l0.6-0.1l84.3,60.4c3.9-5.8,9.6-10.4,16.4-12.9L650.5,146l165.6-22.4C814.3,119.1,813.3,114.2,813.3,109.1z M626.8,129L524.7,55.9
		l267.3,50.8L626.8,129z"/>
	<path fill="#FFFFFF" d="M552.5,139.1C552.5,139.1,552.5,139.1,552.5,139.1l29.3-4L552.5,139.1z"/>
	<path fill="#FFFFFF" d="M616.6,141.4l0-0.3c-0.8-5.8-6.7-9.8-13.2-9l-21.5,2.9l-29.4,4c-2.1,0.3-4.1,0.7-6.1,0.8
		c0.2,0.5,1,2.2,1.1,2.7c0,0,0-0.1,0-0.1c0,0,0,0.1,0,0.1c0,0,0,0,0,0c1,2.7,1.7,5.6,2,8.6c0,0,0,0,0,0c0.1,1.1,0.2,2.3,0.2,3.5
		c0,0.6,0,1.2,0,1.7c0,0.2,0,0.5,0,0.7c-0.1,0.9-0.1,1.7-0.3,2.6l62.8-8.5C615.3,148.9,617.1,145.2,616.6,141.4z"/>
	<path fill="#FFFFFF" d="M547.5,142.5C547.5,142.5,547.5,142.5,547.5,142.5c0,0.1,0,0.1,0,0.1C547.5,142.6,547.5,142.5,547.5,142.5z
		"/>
</g>
</svg>
